<svg xmlns="http://www.w3.org/2000/svg" width="96" height="96" viewBox="0 0 64 64">
  <defs>
    <linearGradient id="docGrad" x1="0" y1="0" x2="1" y2="1">
      <stop offset="0%" stop-color="#FFA75C"/>
      <stop offset="100%" stop-color="#FF5E3A"/>
    </linearGradient>
    <linearGradient id="curlGrad" x1="0" y1="0" x2="0" y2="1">
      <stop offset="0%" stop-color="#FF8A3B" stop-opacity="0.8"/>
      <stop offset="100%" stop-color="#FF5620" stop-opacity="0"/>
    </linearGradient>
    <filter id="glow" x="-20%" y="-20%" width="140%" height="140%">
      <feGaussianBlur stdDeviation="1.5" result="coloredBlur"/>
      <feMerge>
        <feMergeNode in="coloredBlur"/>
        <feMergeNode in="SourceGraphic"/>
      </feMerge>
    </filter>
    <filter id="dropShadow" x="-20%" y="-20%" width="140%" height="140%">
      <feDropShadow dx="0" dy="1" stdDeviation="1" flood-color="#FF7A4E" flood-opacity="0.4"/>
    </filter>
  </defs>
  <!-- Main doc body -->
  <rect x="10" y="6" width="44" height="52" rx="4" ry="4" fill="url(#docGrad)" stroke="#FF6E3B" stroke-width="2" filter="url(#glow)"/>
  <!-- Page curl effect -->
  <path d="M54 6 L54 18 Q54 24 48 24 L42 24" fill="url(#curlGrad)" filter="url(#dropShadow)" opacity="0.6"/>
  <!-- Text lines with varied length -->
  <line x1="18" y1="18" x2="46" y2="18" stroke="white" stroke-width="2" stroke-linecap="round"/>
  <line x1="18" y1="26" x2="42" y2="26" stroke="white" stroke-width="2" stroke-linecap="round"/>
  <line x1="18" y1="34" x2="40" y2="34" stroke="white" stroke-width="2" stroke-linecap="round"/>
  <line x1="18" y1="42" x2="44" y2="42" stroke="white" stroke-width="1.3" stroke-linecap="round" opacity="0.7"/>
  <line x1="18" y1="50" x2="38" y2="50" stroke="white" stroke-width="1.3" stroke-linecap="round" opacity="0.7"/>
  <!-- Highlight dots -->
  <circle cx="52" cy="10" r="1.2" fill="#FFD6B0"/>
  <circle cx="48" cy="12" r="1.5" fill="#FFBE9F"/>
</svg>
